{"title":"Avengers: Age of Ultron (2015) CAMRip [RUS]","uid":11843673,"size":464605135,"categoryP":"video","categoryS":"movies","magnet":"?xt=urn:btih:5a643b3d2ae6915944e13f529519e5e599566d60&amp;dn=Avengers%3A+Age+of+Ultron+%282015%29+CAMRip+%5BRUS%5D&amp;tr=udp%3A%2F%2Ftracker.openbittorrent.com%3A80&amp;tr=udp%3A%2F%2Fopen.demonii.com%3A1337&amp;tr=udp%3A%2F%2Ftracker.coppersurfer.tk%3A6969&amp;tr=udp%3A%2F%2Fexodus.desync.com%3A6969","seeders":2,"leechers":0,"uploader":"nbdjod","files":1,"time":1429884371,"description":"Avengers: Age of Ultron (2015) CAMRip [RUS]\n\nAudio - Russian\n\nStoryline\n\nWhen Tony Stark tries to jumpstart a dormant peacekeeping program, things go awry and Earth's Mightiest Heroes, including Iron Man, Captain America, Thor, The Incredible Hulk, Black Widow and Hawkeye, are put to the ultimate test as the fate of the planet hangs in the balance. As the villainous Ultron emerges, it is up to The Avengers to stop him from enacting his terrible plans, and soon uneasy alliances and unexpected action pave the way for a global adventure.\n\n\nReview by Loveforme1432 Hulled\n\nI just want to get to the point, this movie is outstanding. This will most likely be the biggest movie of 2015. This is a great movie for those enjoy who action, suspense, and awe worthy moments. This was unbelievably better then the first and I had my doubts but of course Marvel blew me away. I can not even think of one bad thing to say honestly, Marvel knows what to do and how do to do it. If you are a Marvel fan you need to see this movie. I will admit I was a bit upset when I found out Loki/ Tom Hiddleston would not be in this one but Ultorn delivered an amazing performance as well. Get your tickets and get your friends, family, or both because you are in for a huge surprise.\n\n\n\nMI:\nGeneral\nFormat                                   : MPEG-4\nFormat profile                           : Base Media\nCodec ID                                 : isom\nFile size                                : 443 MiB\nDuration                                 : 2h 12mn\nOverall bit rate mode                    : Variable\nOverall bit rate                         : 467 Kbps\nEncoded date                             : UTC 2015-04-23 08:42:22\nTagged date                              : UTC 2015-04-23 08:42:22\n\nVideo\nID                                       : 1\nFormat                                   : AVC\nFormat/Info                              : Advanced Video Codec\nFormat profile                           : &lt;a class=&quot;__cf_email__&quot; href=&quot;/cdn-cgi/l/email-protection&quot; data-cfemail=&quot;d79fbeb0bf979be3f9e6&quot;&gt;[email&amp;#160;protected]&lt;/a&gt;&lt;script cf-hash='f9e31' type=&quot;text/javascript&quot;&gt;\n/* &lt;![CDATA[ */!function(){try{var t=&quot;currentScript&quot;in document?document.currentScript:function(){for(var t=document.getElementsByTagName(&quot;script&quot;),e=t.length;e--;)if(t[e].getAttribute(&quot;cf-hash&quot;))return t[e]}();if(t&amp;&amp;t.previousSibling){var e,r,n,i,c=t.previousSibling,a=c.getAttribute(&quot;data-cfemail&quot;);if(a){for(e=&quot;&quot;,r=parseInt(a.substr(0,2),16),n=2;a.length-n;n+=2)i=parseInt(a.substr(n,2),16)^r,e+=String.fromCharCode(i);e=document.createTextNode(e),c.parentNode.replaceChild(e,c)}}}catch(u){}}();/* ]]&gt; */&lt;/script&gt;\nFormat settings, CABAC                   : Yes\nFormat settings, ReFrames                : 4 frames\nCodec ID                                 : avc1\nCodec ID/Info                            : Advanced Video Coding\nDuration                                 : 2h 12mn\nBit rate                                 : 360 Kbps\nMaximum bit rate                         : 2 036 Kbps\nWidth                                    : 480 pixels\nHeight                                   : 200 pixels\nDisplay aspect ratio                     : 2.40:1\nFrame rate mode                          : Constant\nFrame rate                               : 29.970 fps\nColor space                              : YUV\nChroma subsampling                       : 4:2:0\nBit depth                                : 8 bits\nScan type                                : Progressive\nBits/(Pixel*Frame)                       : 0.125\nStream size                              : 342 MiB (77%)\nWriting library                          : x264 core 142 r2431 ac76440\nEncoding settings                        : cabac=1 / ref=3 / deblock=1:0:0 / analyse=0x3:0x113 / me=hex / subme=7 / psy=1 / psy_rd=1.00:0.00 / mixed_ref=1 / me_range=16 / chroma_me=1 / trellis=1 / 8x8dct=1 / cqm=0 / deadzone=21,11 / fast_pskip=1 / chroma_qp_offset=-2 / threads=6 / lookahead_threads=1 / sliced_threads=0 / nr=0 / decimate=1 / interlaced=0 / bluray_compat=0 / constrained_intra=0 / bframes=3 / b_pyramid=2 / b_adapt=1 / b_bias=0 / direct=1 / weightb=1 / open_gop=0 / weightp=2 / keyint=300 / keyint_min=29 / scenecut=40 / intra_refresh=0 / rc_lookahead=40 / rc=2pass / mbtree=1 / bitrate=360 / ratetol=1.0 / qcomp=0.60 / qpmin=0 / qpmax=69 / qpstep=4 / cplxblur=20.0 / qblur=0.5 / vbv_maxrate=62500 / vbv_bufsize=78125 / nal_hrd=none / filler=0 / ip_ratio=1.40 / aq=1:1.00\nEncoded date                             : UTC 2015-04-24 06:42:21\nTagged date                              : UTC 2015-04-23 08:42:56\n\nAudio\nID                                       : 2\nFormat                                   : AAC\nFormat/Info                              : Advanced Audio Codec\nFormat profile                           : LC\nCodec ID                                 : 40\nDuration                                 : 2h 12mn\nBit rate mode                            : Variable\nBit rate                                 : 103 Kbps\nMaximum bit rate                         : 135 Kbps\nChannel(s)                               : 2 channels\nChannel positions                        : Front: L R\nSampling rate                            : 48.0 KHz\nCompression mode                         : Lossy\nStream size                              : 97.5 MiB (22%)\nEncoded date                             : UTC 2015-04-23 08:42:41\nTagged date                              : UTC 2015-04-23 08:42:56\n\n\n\nsample:  &lt;a href=&quot;\nhttp://rusfolder.com/43527284&quot; rel=&quot;nofollow&quot; target=&quot;_NEW&quot;&gt;\nhttp://rusfolder.com/43527284&lt;/a&gt;\n\nscreens:  &lt;a href=&quot;\nhttp://i1.imageban.ru/out/2015/04/24/888741cf30f4d5c93562f4f03b20e055.jpg&quot; rel=&quot;nofollow&quot; target=&quot;_NEW&quot;&gt;\nhttp://i1.imageban.ru/out/2015/04/24/888741cf30f4d5c93562f4f03b20e055.jpg&lt;/a&gt; &lt;a href=&quot;\nhttp://i1.imageban.ru/out/2015/04/24/d6b70289f4632920ff12301e42baa0a3.jpg&quot; rel=&quot;nofollow&quot; target=&quot;_NEW&quot;&gt;\nhttp://i1.imageban.ru/out/2015/04/24/d6b70289f4632920ff12301e42baa0a3.jpg&lt;/a&gt; &lt;a href=&quot;\nhttp://i5.imageban.ru/out/2015/04/24/eee0df36aafaca29881e2ad74ac9386a.jpg&quot; rel=&quot;nofollow&quot; target=&quot;_NEW&quot;&gt;\nhttp://i5.imageban.ru/out/2015/04/24/eee0df36aafaca29881e2ad74ac9386a.jpg&lt;/a&gt; &lt;a href=&quot;\nhttp://i1.imageban.ru/out/2015/04/24/eb357135f828be6eeb3dafcd2161e7bd.jpg&quot; rel=&quot;nofollow&quot; target=&quot;_NEW&quot;&gt;\nhttp://i1.imageban.ru/out/2015/04/24/eb357135f828be6eeb3dafcd2161e7bd.jpg&lt;/a&gt; &lt;a href=&quot;\nhttp://i1.imageban.ru/out/2015/04/24/878b363ead88b2dda68bf0bd038a0afa.jpg&quot; rel=&quot;nofollow&quot; target=&quot;_NEW&quot;&gt;\nhttp://i1.imageban.ru/out/2015/04/24/878b363ead88b2dda68bf0bd038a0afa.jpg&lt;/a&gt; &lt;a href=&quot;\nhttp://i1.imageban.ru/out/2015/04/24/c1e5fa4612550dca0297326dc1b54080.jpg&quot; rel=&quot;nofollow&quot; target=&quot;_NEW&quot;&gt;\nhttp://i1.imageban.ru/out/2015/04/24/c1e5fa4612550dca0297326dc1b54080.jpg&lt;/a&gt; &lt;a href=&quot;\nhttp://i5.imageban.ru/out/2015/04/24/d69177510d8406a0e6705c4a36fd65b8.jpg&quot; rel=&quot;nofollow&quot; target=&quot;_NEW&quot;&gt;\nhttp://i5.imageban.ru/out/2015/04/24/d69177510d8406a0e6705c4a36fd65b8.jpg&lt;/a&gt; &lt;a href=&quot;\nhttp://i4.imageban.ru/out/2015/04/24/b0e2536d4dafdc36a50c1168287c6e2a.jpg&quot; rel=&quot;nofollow&quot; target=&quot;_NEW&quot;&gt;\nhttp://i4.imageban.ru/out/2015/04/24/b0e2536d4dafdc36a50c1168287c6e2a.jpg&lt;/a&gt;","torrent":{"xt":"urn:btih:5a643b3d2ae6915944e13f529519e5e599566d60","amp;dn":"Avengers%3A+Age+of+Ultron+%282015%29+CAMRip+%5BRUS%5D","amp;tr":["udp%3A%2F%2Ftracker.openbittorrent.com%3A80","udp%3A%2F%2Fopen.demonii.com%3A1337","udp%3A%2F%2Ftracker.coppersurfer.tk%3A6969","udp%3A%2F%2Fexodus.desync.com%3A6969"],"infoHash":"5a643b3d2ae6915944e13f529519e5e599566d60","infoHashBuffer":{"type":"Buffer","data":[90,100,59,61,42,230,145,89,68,225,63,82,149,25,229,229,153,86,109,96]},"announce":[],"urlList":[]}}